<svg width="80" height="80" viewBox="0 0 80 80" fill="none" xmlns="http://www.w3.org/2000/svg">
<path d="M40 40C34.5 40 29.7917 38.0417 25.875 34.125C21.9583 30.2083 20 25.5 20 20C20 14.5 21.9583 9.79167 25.875 5.875C29.7917 1.95833 34.5 0 40 0C45.5 0 50.2083 1.95833 54.125 5.875C58.0417 9.79167 60 14.5 60 20C60 25.5 58.0417 30.2083 54.125 34.125C50.2083 38.0417 45.5 40 40 40ZM0 80V66C0 63.1667 0.729167 60.5625 2.1875 58.1875C3.64583 55.8125 5.58333 54 8 52.75C13.1667 50.1667 18.4167 48.2292 23.75 46.9375C29.0833 45.6458 34.5 45 40 45C45.5 45 50.9167 45.6458 56.25 46.9375C61.5833 48.2292 66.8333 50.1667 72 52.75C74.4167 54 76.3542 55.8125 77.8125 58.1875C79.2708 60.5625 80 63.1667 80 66V80H0Z" fill="white"/>
</svg>
